{"title":"Teens.Love.Anal.2014..xXx.DVRRip-ViK","uid":10711585,"size":3221540695,"categoryP":"porn","categoryS":"movies","magnet":"?xt=urn:btih:ae0025814cc7ccd14a4837f9cd552af2d0d4c079&amp;dn=Teens.Love.Anal.2014..xXx.DVRRip-ViK&amp;tr=udp%3A%2F%2Ftracker.openbittorrent.com%3A80&amp;tr=udp%3A%2F%2Fopen.demonii.com%3A1337&amp;tr=udp%3A%2F%2Ftracker.coppersurfer.tk%3A6969&amp;tr=udp%3A%2F%2Fexodus.desync.com%3A6969","seeders":0,"leechers":1,"uploader":"iH2OSO4","files":-1,"time":1407362401,"description":"\n\nGeneral Name:\nTeens.Love.Anal.2014..xXx.DVRRip-ViK.mp4\n\nSOURCE :  &lt;a href=&quot; http://vasileturcu.ro/i/anas6542.html&quot; rel=&quot;nofollow&quot; target=&quot;_NEW&quot;&gt; http://vasileturcu.ro/i/anas6542.html&lt;/a&gt;\n\nFormat                           : MPEG-4\nFormat profile                   : Base Media\nCodec ID                         : isom\nFile size                        : 3.00 GiB\nDuration                         : 4h 18mn\nOverall bit rate                 : 1 664 Kbps\nEncoded date                     : UTC 2014-08-06 19:40:34\nTagged date                      : UTC 2014-08-06 19:40:34\n\n\nVideo\nID                               : 1\nFormat                           : MPEG-4 Visual\nFormat profile                   : Simple@L1\nFormat settings, BVOP            : No\nFormat settings, QPel            : No\nFormat settings, GMC             : No warppoints\nFormat settings, Matrix          : Default (H.263)\nCodec ID                         : 20\nDuration                         : 4h 18mn\nBit rate mode                    : Variable\nBit rate                         : 1 536 Kbps\nMaximum bit rate                 : 5 108 Kbps\nWidth                            : 856 pixels\nHeight                           : 480 pixels\nDisplay aspect ratio             : 16:9\nFrame rate mode                  : Constant\nFrame rate                       : 29.970 fps\nColor space                      : YUV\nChroma subsampling               : 4:2:0\nBit depth                        : 8 bits\nScan type                        : Progressive\nCompression mode                 : Lossy\nBits/(Pixel*Frame)               : 0.125\nStream size                      : 2.77 GiB (92%)\nWriting library                  : Lavc53.8.0\nEncoded date                     : UTC 2014-08-06 19:40:34\nTagged date                      : UTC 2014-08-06 19:42:40\n\nAudio\nID                               : 2\nFormat                           : AAC\nFormat/Info                      : Advanced Audio Codec\nFormat profile                   : LC\nCodec ID                         : 40\nDuration                         : 4h 18mn\nBit rate mode                    : Variable\nBit rate                         : 126 Kbps\nMaximum bit rate                 : 241 Kbps\nChannel(s)                       : 2 channels\nChannel positions                : Front: L R\nSampling rate                    : 44.1 KHz\nCompression mode                 : Lossy\nStream size                      : 232 MiB (8%)\nEncoded date                     : UTC 2014-08-06 19:42:09\nTagged date                      : UTC 2014-08-06 19:42:40\n\nSiNOPSiS:\nStrip Poke\n\nDanny is introducing hot teen exchange student Valentina to her new roommates. they're bored and it's raining, so the sexy Italian suggests a friendly game of strip poker. And lucky Danny wins the biggest haul of all: Valentina's perfect ass.\n\nAmerican Slut\n\nAlexis Monroe's just unwinding in her dressing room, when her security chases in a guy-groupie who wants to show her why he calls himself her &quot;biggest&quot; fan. Even better, her security dude's also got a big cock, and Alexis has enough sweet ass to go around.\n\nThe Rites Of Big Cock Passage\n\nFor poor Chad Alva, college life is rough. No friends, no girls, and nothing going his way, until today that is! Three pledging sorority babes have turned up naked and horny in his dorm room, asking him to be their master and fuck them hard. What's a college guy to do??\n\nYou Have A Cock Addiction\n\nMischa Brooks is straight-up addicted to cock. She can't even go half a day without having something shoved in her tight pussy. The sex counselor Erik is here to help, but instead he ends up breaking all his own rules, and banging this teen in her sweet holes.\n\nAll His Wishes Cum True\n\nA lot of Luna Kitsuen's patients on the floor fantasize about getting a piece of that nurse's sweet ass. Her horniest, dirtiest patient has been making it very clear he wants nothing more than to slide his cock between her huge boobs, and it might be time for him to get his wish.\n &lt;a href=&quot;\nhttp://www.adultdvdempire.com/1705896/teens-love-anal-porn-movies.html&quot; rel=&quot;nofollow&quot; target=&quot;_NEW&quot;&gt;\nhttp://www.adultdvdempire.com/1705896/teens-love-anal-porn-movies.html&lt;/a&gt;\n\n","torrent":{"xt":"urn:btih:ae0025814cc7ccd14a4837f9cd552af2d0d4c079","amp;dn":"Teens.Love.Anal.2014..xXx.DVRRip-ViK","amp;tr":["udp%3A%2F%2Ftracker.openbittorrent.com%3A80","udp%3A%2F%2Fopen.demonii.com%3A1337","udp%3A%2F%2Ftracker.coppersurfer.tk%3A6969","udp%3A%2F%2Fexodus.desync.com%3A6969"],"infoHash":"ae0025814cc7ccd14a4837f9cd552af2d0d4c079","infoHashBuffer":{"type":"Buffer","data":[174,0,37,129,76,199,204,209,74,72,55,249,205,85,42,242,208,212,192,121]},"announce":[],"urlList":[]}}